<svg width="40" height="31" viewBox="0 0 40 31" fill="none" xmlns="http://www.w3.org/2000/svg">
<path d="M2 13.5C0.895431 13.5 0 14.3954 0 15.5C0 16.6046 0.895431 17.5 2 17.5V13.5ZM39.4142 16.9142C40.1953 16.1332 40.1953 14.8668 39.4142 14.0858L26.6863 1.35786C25.9052 0.576816 24.6389 0.576816 23.8579 1.35786C23.0768 2.13891 23.0768 3.40524 23.8579 4.18629L35.1716 15.5L23.8579 26.8137C23.0768 27.5948 23.0768 28.8611 23.8579 29.6421C24.6389 30.4232 25.9052 30.4232 26.6863 29.6421L39.4142 16.9142ZM2 17.5H38V13.5H2V17.5Z" fill="white"/>
</svg>
