<svg width="22" height="22" viewBox="0 0 22 22" fill="none" xmlns="http://www.w3.org/2000/svg">
<path d="M1.70707 0.292875C1.31657 -0.097625 0.683375 -0.097625 0.292875 0.292875C-0.097625 0.683375 -0.097625 1.31657 0.292875 1.70707L1.70707 0.292875ZM20.0919 21.5061C20.4824 21.8966 21.1156 21.8966 21.5061 21.5061C21.8966 21.1156 21.8966 20.4824 21.5061 20.0919L20.0919 21.5061ZM0.292875 20.0919C-0.097625 20.4824 -0.097625 21.1156 0.292875 21.5061C0.683375 21.8966 1.31657 21.8966 1.70707 21.5061L0.292875 20.0919ZM21.5061 1.70707C21.8966 1.31657 21.8966 0.683375 21.5061 0.292875C21.1156 -0.097625 20.4824 -0.097625 20.0919 0.292875L21.5061 1.70707ZM0.292875 1.70707L20.0919 21.5061L21.5061 20.0919L1.70707 0.292875L0.292875 1.70707ZM1.70707 21.5061L21.5061 1.70707L20.0919 0.292875L0.292875 20.0919L1.70707 21.5061Z" fill="black"/>
</svg>
